<svg xmlns="http://www.w3.org/2000/svg" xmlns:xlink="http://www.w3.org/1999/xlink" version="1.1" width="1000" height="1000" viewBox="0 0 1000 1000" xml:space="preserve">
<desc>Created with Fabric.js 3.5.0</desc>
<defs>
</defs>
<rect x="0" y="0" width="100%" height="100%" fill="rgba(255,255,255,0)"/>
<g transform="matrix(0 0.7116 0.7116 0 541.1034 500.152)" id="326828">
<path style="stroke: none; stroke-width: 1; stroke-dasharray: none; stroke-linecap: butt; stroke-dashoffset: 0; stroke-linejoin: miter; stroke-miterlimit: 4; is-custom-font: none; font-file-url: none; fill: rgb(0,0,0); fill-rule: nonzero; opacity: 1;" vector-effect="non-scaling-stroke" transform=" translate(-758.7372, -315)" d="M 536 486 c -5 -20 -13 -25 -44 -28 l -37 -3 l -10 -92 c -5 -50 -13 -95 -17 -98 c -4 -4 -25 -4 -47 0 c -39 6 -41 9 -41 41 c 0 28 -4 35 -26 40 c -14 4 -30 2 -37 -5 c -6 -6 -25 -11 -42 -12 l -30 -1 l 33 -9 c 19 -6 32 -16 32 -26 c 0 -14 -12 -15 -105 -9 c -58 4 -105 5 -105 2 c 0 -3 28 -41 62 -86 l 61 -80 l 582 0 c 321 0 597 3 614 6 c 27 6 31 11 31 38 c 0 26 5 34 27 42 c 25 9 26 10 9 26 c -11 12 -33 18 -62 18 c -42 0 -59 12 -31 23 c 6 3 3 6 -8 7 c -17 2 -16 3 5 9 c 21 7 17 9 -27 15 c -61 9 -73 4 -73 -30 c 0 -23 -2 -24 -75 -24 c -73 0 -75 1 -75 25 c 0 20 5 25 26 25 c 46 0 20 25 -29 28 c -44 3 -47 5 -47 31 c 0 17 -7 31 -16 35 c -25 10 -62 7 -70 -5 c -3 -6 -19 -9 -35 -7 c -15 3 -26 1 -23 -4 c 3 -4 13 -8 22 -9 c 14 0 13 -2 -3 -9 c -17 -7 -17 -9 -2 -9 c 9 -1 17 -6 17 -11 c 0 -7 -22 -10 -57 -8 l -58 3 l -7 44 c -4 24 -9 45 -11 47 c -1 2 -22 4 -46 6 l -43 3 l -17 -53 c -9 -30 -20 -53 -25 -53 c -5 0 -20 37 -33 82 c -13 45 -26 86 -29 91 c -3 4 -20 8 -39 8 c -26 0 -34 -5 -39 -24 z" stroke-linecap="round"/>
</g>
</svg>