<svg xmlns="http://www.w3.org/2000/svg" xmlns:xlink="http://www.w3.org/1999/xlink" version="1.1" viewBox="0 0 1000 1000" xml:space="preserve">
<desc>Created with Fabric.js 3.5.0</desc>
<defs>
</defs>
<rect x="0" y="0" width="100%" height="100%" fill="#gg0000"/>
<g transform="matrix(0 0.3523 0.3523 0 499.9859 500.0471)" id="171320">
<path style="stroke: none; stroke-width: 1; stroke-dasharray: none; stroke-linecap: butt; stroke-dashoffset: 0; stroke-linejoin: miter; stroke-miterlimit: 4; is-custom-font: none; font-file-url: none; fill: rgb(0,0,0); fill-rule: nonzero; opacity: 1;" vector-effect="non-scaling-stroke" transform=" translate(-1488.6471, -463.657)" d="M 2139 875 c 0 -11 0 -41 1 -68 c 1 -35 -3 -49 -14 -53 c -9 -3 -13 -10 -10 -15 c 3 -5 -2 -12 -10 -15 c -9 -3 -16 -14 -16 -24 c 0 -32 -42 -130 -56 -130 c -9 0 -14 17 -16 53 l -3 52 l -65 0 l -65 0 l 3 -51 c 3 -40 0 -53 -12 -57 c -10 -4 -16 -19 -16 -42 l 0 -35 l -115 0 l -115 0 l 0 -70 l 0 -70 l -660 0 l -660 0 l 0 -25 c 0 -20 5 -25 25 -25 c 16 0 25 -6 25 -15 c 0 -13 -23 -15 -145 -15 c -164 0 -159 3 -130 -79 c 21 -61 51 -98 98 -124 l 42 -22 l 1282 -3 l 1283 -2 l 6 27 c 14 64 39 132 73 198 c 20 39 37 73 39 77 c 2 4 -113 9 -255 10 l -258 3 l -2 40 c -6 97 -15 145 -26 145 c -9 0 -11 13 -9 40 l 4 40 l -50 0 c -30 0 -54 -5 -59 -13 c -4 -7 -20 -18 -35 -24 c -16 -7 -28 -19 -28 -28 c 0 -8 -5 -15 -11 -15 c -7 0 -10 33 -10 98 c 1 123 -8 234 -20 247 c -6 5 -9 2 -10 -10 z" stroke-linecap="round"/>
</g>
</svg>