<svg xmlns="http://www.w3.org/2000/svg" xmlns:xlink="http://www.w3.org/1999/xlink" version="1.1" width="1000" height="1000" viewBox="0 0 1000 1000" xml:space="preserve">
<desc>Created with Fabric.js 3.5.0</desc>
<defs>
</defs>
<rect x="0" y="0" width="100%" height="100%" fill="rgba(255,255,255,0)"/>
<g transform="matrix(0 1.0794 1.0794 0 501.6366 503.0892)" id="939763">
<path style="stroke: none; stroke-width: 1; stroke-dasharray: none; stroke-linecap: butt; stroke-dashoffset: 0; stroke-linejoin: miter; stroke-miterlimit: 4; is-custom-font: none; font-file-url: none; fill: rgb(0,0,0); fill-rule: nonzero; opacity: 1;" vector-effect="non-scaling-stroke" transform=" translate(-563.6058, -290.0871)" d="M 599 533 c 0 -4 0 -59 1 -120 c 1 -93 -1 -113 -13 -113 c -8 0 -17 7 -21 15 c -9 25 -80 19 -110 -9 c -15 -13 -26 -28 -26 -35 c 0 -8 -49 -11 -165 -11 l -165 0 l 1 -42 c 0 -24 8 -72 17 -108 l 17 -65 l 389 -3 c 287 -2 392 1 403 10 c 14 11 87 132 99 162 c 5 13 -4 16 -55 16 l -60 0 l -11 41 c -7 23 -9 51 -6 62 c 3 13 -1 21 -15 24 c -10 3 -19 13 -19 22 c -1 14 -2 14 -14 -1 c -17 -23 -96 -25 -96 -3 c 0 9 -10 15 -27 16 l -28 1 l 30 7 l 30 6 l -43 13 c -51 16 -62 10 -62 -29 c 0 -17 -7 -38 -16 -46 c -14 -15 -15 -7 -13 87 c 2 74 0 105 -9 108 c -7 2 -12 0 -13 -5 z" stroke-linecap="round"/>
</g>
</svg>