<svg xmlns="http://www.w3.org/2000/svg" xmlns:xlink="http://www.w3.org/1999/xlink" version="1.1" width="1000" height="1000" viewBox="0 0 1000 1000" xml:space="preserve">
<desc>Created with Fabric.js 3.5.0</desc>
<defs>
</defs>
<rect x="0" y="0" width="100%" height="100%" fill="rgba(255,255,255,0)"/>
<g transform="matrix(0 0.4517 0.3159 0 499.6304 499.3207)" id="16104">
<path style="stroke: none; stroke-width: 1; stroke-dasharray: none; stroke-linecap: butt; stroke-dashoffset: 0; stroke-linejoin: miter; stroke-miterlimit: 4; is-custom-font: none; font-file-url: none; fill: rgb(0,0,0); fill-rule: nonzero; opacity: 1;" vector-effect="non-scaling-stroke" transform=" translate(-1587.5371, -595)" d="M 1473 773 l 2 -48 l -51 3 c -61 4 -69 -4 -78 -78 c -4 -30 -9 -70 -12 -87 l -6 -33 l -119 0 c -74 0 -120 4 -125 11 c -4 7 -22 9 -48 5 c -22 -3 -49 -6 -58 -5 c -27 1 -106 0 -125 -1 c -10 0 -33 2 -51 6 c -19 4 -43 2 -55 -4 c -12 -6 -48 -13 -80 -16 c -77 -6 -138 -42 -165 -97 c -12 -23 -19 -46 -16 -51 c 3 -4 498 -8 1101 -8 l 1095 0 l -6 27 c -5 17 -3 29 6 35 c 11 6 10 10 -1 17 c -9 6 -11 18 -7 35 c 6 25 5 26 -39 26 l -45 0 l 0 85 l 0 85 l -89 0 l -90 0 l -15 -52 c -8 -29 -21 -74 -28 -100 c -13 -52 -17 -54 -90 -42 c -28 5 -38 11 -38 25 c 0 16 -8 19 -51 19 c -35 0 -55 -5 -63 -15 c -10 -14 -24 -14 -101 -6 c -50 5 -154 13 -232 16 l -142 7 l -62 94 c -41 63 -68 94 -80 94 c -16 0 -19 8 -19 50 c 0 28 -4 50 -10 50 c -5 0 -9 -21 -7 -47 z" stroke-linecap="round"/>
</g>
</svg>